#Comment line ignore any data following # character 
#Hierarchical Translation and Rotation (.htr) file 
[Header]	
#Header keywords are followed by a single value 
FileType HTR		#Single word string
DataType HTRS		#Translation followed by rotation and scale data
FileVersion 1		#integer
NumSegments 64		#integer
NumFrames 3		#integer
DataFrameRate 30		#integer, data frame rate in this file
EulerRotationOrder ZYX
CalibrationUnits mm
RotationUnits Degrees
GlobalAxisofGravity Y
BoneLengthAxis Y
ScaleFactor 1.00
[SegmentNames&Hierarchy]
#CHILD	PARENT
Pinger_Root GLOBAL
Pelvis Pinger_Root
L_Hip Pelvis
R_Hip Pelvis
Rear_Leg01 Pelvis
Spine1 Pelvis
L_Leg01 L_Hip
L_Leg02 L_Leg01
L_Leg03 L_Leg02
L_Foot L_Leg03
L_Toe1_01 L_Foot
L_Toe2_01 L_Foot
L_Toe3_01 L_Foot
planeAlignerLeft L_Foot
L_Toe1_02 L_Toe1_01
L_Toe1_03 L_Toe1_02
L_Toe2_02 L_Toe2_01
L_Toe2_03 L_Toe2_02
L_Toe3_02 L_Toe3_01
L_Toe3_03 L_Toe3_02
planeLockWeightLeft planeAlignerLeft
R_Leg01 R_Hip
R_Leg02 R_Leg01
R_Leg03 R_Leg02
R_Foot R_Leg03
planeAlignerRight R_Foot
R_Toe1_01 R_Foot
R_Toe2_01 R_Foot
R_Toe3_01 R_Foot
planeLockWeightRight planeAlignerRight
R_Toe1_02 R_Toe1_01
R_Toe1_03 R_Toe1_02
R_Toe2_02 R_Toe2_01
R_Toe2_03 R_Toe2_02
R_Toe3_02 R_Toe3_01
R_Toe3_03 R_Toe3_02
Rear_Leg02 Rear_Leg01
Rear_Leg03 Rear_Leg02
Rear_Leg04 Rear_Leg03
Rear_Foot Rear_Leg04
planeAlignerCenter Rear_Foot
Rear_Toe1_01 Rear_Foot
Rear_Toe2_01 Rear_Foot
Rear_Toe3_01 Rear_Foot
planeLockWeightCenter planeAlignerCenter
Rear_Toe1_02 Rear_Toe1_01
Rear_Toe1_03 Rear_Toe1_02
Rear_Toe2_02 Rear_Toe2_01
Rear_Toe2_03 Rear_Toe2_02
Rear_Toe3_02 Rear_Toe3_01
Rear_Toe3_03 Rear_Toe3_02
Back_Bone Spine1
Head Spine1
Motor_Bone Back_Bone
Ping_Mechanism Back_Bone
BN_LookIK Head
bottomMouth Head
L_Mouth01 Head
L_mouthFront Head
mouthGun Head
R_Mouth01 Head
R_mouthFront Head
TopMouth Head
weapon_bone Head
[BasePosition]
#SegmentName Tx, Ty, Tz, Rx, Ry, Rz, BoneLength
Pinger_Root 0.000000 0.000000 0.000000 -90.000000 0.000000 0.000000 10.000000 
Pelvis 0.000000 0.000000 0.000000 0.000000 0.000000 0.000000 10.000000 
L_Hip 0.000000 0.000000 0.000000 0.000000 0.000000 0.000000 10.000000 
R_Hip 0.000000 0.000000 0.000000 0.000000 0.000000 0.000000 10.000000 
Rear_Leg01 0.000000 0.000000 0.000000 0.000000 0.000000 0.000000 10.000000 
Spine1 0.000000 0.000000 0.000000 0.000000 0.000000 0.000000 10.000000 
L_Leg01 0.000000 0.000000 0.000000 0.000000 0.000000 0.000000 10.000000 
L_Leg02 0.000000 0.000000 0.000000 0.000000 0.000000 0.000000 10.000000 
L_Leg03 0.000000 0.000000 0.000000 0.000000 0.000000 0.000000 10.000000 
L_Foot 0.000000 0.000000 0.000000 0.000000 0.000000 0.000000 10.000000 
L_Toe1_01 0.000000 0.000000 0.000000 0.000000 0.000000 0.000000 10.000000 
L_Toe2_01 0.000000 0.000000 0.000000 0.000000 0.000000 0.000000 10.000000 
L_Toe3_01 0.000000 0.000000 0.000000 0.000000 0.000000 0.000000 10.000000 
planeAlignerLeft 0.000000 0.000000 0.000000 0.000000 0.000000 0.000000 10.000000 
L_Toe1_02 0.000000 0.000000 0.000000 0.000000 0.000000 0.000000 10.000000 
L_Toe1_03 0.000000 0.000000 0.000000 0.000000 0.000000 0.000000 10.000000 
L_Toe2_02 0.000000 0.000000 0.000000 0.000000 0.000000 0.000000 10.000000 
L_Toe2_03 0.000000 0.000000 0.000000 0.000000 0.000000 0.000000 10.000000 
L_Toe3_02 0.000000 0.000000 0.000000 0.000000 0.000000 0.000000 10.000000 
L_Toe3_03 0.000000 0.000000 0.000000 0.000000 0.000000 0.000000 10.000000 
planeLockWeightLeft 0.000000 0.000000 0.000000 0.000000 0.000000 0.000000 10.000000 
R_Leg01 0.000000 0.000000 0.000000 0.000000 0.000000 0.000000 10.000000 
R_Leg02 0.000000 0.000000 0.000000 0.000000 0.000000 0.000000 10.000000 
R_Leg03 0.000000 0.000000 0.000000 0.000000 0.000000 0.000000 10.000000 
R_Foot 0.000000 0.000000 0.000000 0.000000 0.000000 0.000000 10.000000 
planeAlignerRight 0.000000 0.000000 0.000000 0.000000 0.000000 0.000000 10.000000 
R_Toe1_01 0.000000 0.000000 0.000000 0.000000 0.000000 0.000000 10.000000 
R_Toe2_01 0.000000 0.000000 0.000000 0.000000 0.000000 0.000000 10.000000 
R_Toe3_01 0.000000 0.000000 0.000000 0.000000 0.000000 0.000000 10.000000 
planeLockWeightRight 0.000000 0.000000 0.000000 0.000000 0.000000 0.000000 10.000000 
R_Toe1_02 0.000000 0.000000 0.000000 0.000000 0.000000 0.000000 10.000000 
R_Toe1_03 0.000000 0.000000 0.000000 0.000000 0.000000 0.000000 10.000000 
R_Toe2_02 0.000000 0.000000 0.000000 0.000000 0.000000 0.000000 10.000000 
R_Toe2_03 0.000000 0.000000 0.000000 0.000000 0.000000 0.000000 10.000000 
R_Toe3_02 0.000000 0.000000 0.000000 0.000000 0.000000 0.000000 10.000000 
R_Toe3_03 0.000000 0.000000 0.000000 0.000000 0.000000 0.000000 10.000000 
Rear_Leg02 0.000000 0.000000 0.000000 0.000000 0.000000 0.000000 10.000000 
Rear_Leg03 0.000000 0.000000 0.000000 0.000000 0.000000 0.000000 10.000000 
Rear_Leg04 0.000000 0.000000 0.000000 0.000000 0.000000 0.000000 10.000000 
Rear_Foot 0.000000 0.000000 0.000000 0.000000 0.000000 0.000000 10.000000 
planeAlignerCenter 0.000000 0.000000 0.000000 0.000000 0.000000 0.000000 10.000000 
Rear_Toe1_01 0.000000 0.000000 0.000000 0.000000 0.000000 0.000000 10.000000 
Rear_Toe2_01 0.000000 0.000000 0.000000 0.000000 0.000000 0.000000 10.000000 
Rear_Toe3_01 0.000000 0.000000 0.000000 0.000000 0.000000 0.000000 10.000000 
planeLockWeightCenter 0.000000 0.000000 0.000000 0.000000 0.000000 0.000000 10.000000 
Rear_Toe1_02 0.000000 0.000000 0.000000 0.000000 0.000000 0.000000 10.000000 
Rear_Toe1_03 0.000000 0.000000 0.000000 0.000000 0.000000 0.000000 10.000000 
Rear_Toe2_02 0.000000 0.000000 0.000000 0.000000 0.000000 0.000000 10.000000 
Rear_Toe2_03 0.000000 0.000000 0.000000 0.000000 0.000000 0.000000 10.000000 
Rear_Toe3_02 0.000000 0.000000 0.000000 0.000000 0.000000 0.000000 10.000000 
Rear_Toe3_03 0.000000 0.000000 0.000000 0.000000 0.000000 0.000000 10.000000 
Back_Bone 0.000000 0.000000 0.000000 0.000000 0.000000 0.000000 10.000000 
Head 0.000000 0.000000 0.000000 0.000000 0.000000 0.000000 10.000000 
Motor_Bone 0.000000 0.000000 0.000000 0.000000 0.000000 0.000000 10.000000 
Ping_Mechanism 0.000000 0.000000 0.000000 0.000000 0.000000 0.000000 10.000000 
BN_LookIK 0.000000 0.000000 0.000000 0.000000 0.000000 0.000000 10.000000 
bottomMouth 0.000000 0.000000 0.000000 0.000000 0.000000 0.000000 10.000000 
L_Mouth01 0.000000 0.000000 0.000000 0.000000 0.000000 0.000000 10.000000 
L_mouthFront 0.000000 0.000000 0.000000 0.000000 0.000000 0.000000 10.000000 
mouthGun 0.000000 0.000000 0.000000 0.000000 0.000000 0.000000 10.000000 
R_Mouth01 0.000000 0.000000 0.000000 0.000000 0.000000 0.000000 10.000000 
R_mouthFront 0.000000 0.000000 0.000000 0.000000 0.000000 0.000000 10.000000 
TopMouth 0.000000 0.000000 0.000000 0.000000 0.000000 0.000000 10.000000 
weapon_bone 0.000000 0.000000 0.000000 0.000000 0.000000 0.000000 10.000000 
#Beginning of Data. Separated by tabs
#Fr	Tx	Ty	Tz	Rx	Ry	Rz	SF
[Pinger_Root]
45 0.000000 0.000000 0.000000 -0.000075 -0.000000 -0.000020 0.000000
46 0.000000 0.000000 0.000000 -0.000075 -0.000000 -0.000020 0.000000
47 0.000000 0.000000 0.000000 -0.000075 -0.000000 -0.000020 0.000000
[Pelvis]
45 -402.605377 799.643677 4176.303711 -95.693306 -82.110367 88.117195 4271.186523
46 -347.589996 822.551147 4182.625000 -95.734138 -82.605621 88.153038 4276.886719
47 -291.560150 842.120911 4192.611816 -95.780678 -83.101120 88.194611 4286.276855
[L_Hip]
45 5.766392 125.831482 872.656799 160.158691 -45.484905 122.312202 881.701050
46 5.766392 125.831482 872.656799 160.158691 -45.484905 122.312202 881.701050
47 5.766392 125.831482 872.656799 160.158691 -45.484905 122.312202 881.701050
[R_Hip]
45 5.765438 125.836372 -872.654907 38.087841 49.812687 125.703735 881.699829
46 5.765438 125.836372 -872.654907 38.087841 49.812687 125.703735 881.699829
47 5.765438 125.836372 -872.654907 38.087841 49.812687 125.703735 881.699829
[Rear_Leg01]
45 -192.298416 -925.602966 -0.001907 171.167358 8.740941 -164.095825 945.367432
46 -192.298416 -925.602966 -0.001907 171.108658 8.158508 -163.279144 945.367432
47 -192.298416 -925.602966 -0.001907 170.937088 7.337182 -162.517883 945.367432
[Spine1]
45 290.604584 5.007505 0.000477 3.092474 -12.539761 15.851867 290.647736
46 290.604584 5.007505 0.000477 3.508177 -10.557075 16.521566 290.647736
47 290.604584 5.007505 0.000477 3.944870 -8.579342 17.201893 290.647736
[L_Leg01]
45 761.932007 -0.002384 -0.069261 12.352974 -22.392431 6.947957 761.932068
46 761.932007 -0.002384 -0.069261 13.354018 -21.929234 6.001059 761.932068
47 761.932007 -0.002384 -0.069261 14.590934 -21.336071 4.843179 761.932068
[L_Leg02]
45 1441.140503 -0.000954 -0.000715 4.583532 -0.178683 -146.855865 1441.140503
46 1441.140503 -0.000954 -0.000715 4.536896 -0.176179 -146.442871 1441.140503
47 1441.140503 -0.000954 -0.000715 4.460120 -0.178870 -145.786667 1441.140503
[L_Leg03]
45 1686.963989 -0.000715 -0.000954 -0.036445 0.017039 120.079155 1686.963989
46 1686.963989 -0.000715 -0.000954 -0.036447 0.017033 120.061462 1686.963989
47 1686.963989 -0.000715 -0.000954 -0.036450 0.017027 120.043762 1686.963989
[L_Foot]
45 3041.570068 -30.715107 11.297464 7.998439 12.121684 59.610027 3041.746094
46 3041.570068 -30.715107 11.297464 7.218775 12.161304 59.558704 3041.746094
47 3041.570068 -30.715107 11.297464 6.438966 12.200239 59.506821 3041.746094
[L_Toe1_01]
45 -188.216690 -224.732346 -21.137953 93.737869 -11.057647 -173.688431 293.899567
46 -188.216690 -224.732346 -21.137953 93.742157 -10.576210 -173.475647 293.899567
47 -188.216690 -224.732346 -21.137953 93.748238 -10.094768 -173.263138 293.899567
[L_Toe2_01]
45 200.746536 -219.926590 148.838394 -89.190102 -32.061596 -50.510765 332.896027
46 200.746536 -219.926590 148.838394 -89.259727 -31.361986 -50.841606 332.896027
47 200.746536 -219.926590 148.838394 -89.333496 -30.662680 -51.171005 332.896027
[L_Toe3_01]
45 188.832520 -219.859131 -191.078659 -97.387688 10.135175 -60.802380 347.140900
46 188.832520 -219.859131 -191.078659 -97.652130 10.570575 -61.709988 347.140900
47 188.832520 -219.859131 -191.078659 -97.924011 11.001852 -62.621075 347.140900
[planeAlignerLeft]
45 0.812531 -811.448792 -0.314951 0.000000 -90.000000 -90.001900 811.449280
46 0.812531 -811.448792 -0.314951 0.000000 -90.000000 -90.001900 811.449280
47 0.812531 -811.448792 -0.314951 0.000000 -90.000000 -90.001900 811.449280
[L_Toe1_02]
45 413.761139 0.000477 0.000000 0.001385 -25.880981 0.001385 413.761139
46 413.761139 0.000477 0.000000 0.001385 -25.886055 0.001385 413.761139
47 413.761139 0.000477 0.000000 0.001385 -25.891132 0.001385 413.761139
[L_Toe1_03]
45 464.317322 0.000358 -0.000089 0.003306 48.413132 0.003306 464.317322
46 464.317322 0.000358 -0.000089 0.003388 49.467270 0.003388 464.317322
47 464.317322 0.000358 -0.000089 0.003455 50.279945 0.003455 464.317322
[L_Toe2_02]
45 342.235809 -0.000477 0.000238 0.001188 -72.366821 0.001188 342.235809
46 342.235809 -0.000477 0.000238 0.001188 -72.336960 0.001188 342.235809
47 342.235809 -0.000477 0.000238 0.001188 -72.307091 0.001188 342.235809
[L_Toe2_03]
45 420.210846 -0.000715 0.000000 0.028041 85.202492 0.028041 420.210846
46 420.210846 -0.000715 0.000000 0.027337 85.078926 0.027337 420.210846
47 420.210846 -0.000715 0.000000 0.026668 84.955345 0.026668 420.210846
[L_Toe3_02]
45 329.270111 0.000954 0.000000 0.002927 -82.994026 0.002927 329.270111
46 329.270111 0.000954 0.000000 0.002344 -82.740822 0.002344 329.270111
47 329.270111 0.000954 0.000000 0.001760 -82.487679 0.001760 329.270111
[L_Toe3_03]
45 439.137451 -0.001907 0.000954 179.990829 65.829384 179.997971 439.137451
46 439.137451 -0.001907 0.000954 179.994003 67.476830 179.999954 439.137451
47 439.137451 -0.001907 0.000954 179.997589 69.124603 -179.997665 439.137451
[planeLockWeightLeft]
45 -0.000954 0.000238 -0.000305 -0.011826 -0.004376 0.005620 0.001029
46 -0.000954 0.000238 -0.000305 -0.011826 -0.004376 0.005620 0.001029
47 -0.000954 0.000238 -0.000305 -0.011826 -0.004376 0.005620 0.001029
[R_Leg01]
45 761.455627 -0.001907 -0.000358 120.770706 -10.864610 25.476583 761.455688
46 761.455627 -0.001907 -0.000358 120.645813 -10.971124 26.058937 761.455688
47 761.455627 -0.001907 -0.000358 120.539955 -10.983983 26.891144 761.455688
[R_Leg02]
45 1441.140625 0.000000 -0.000238 -1.349691 -0.201158 -119.113388 1441.140625
46 1441.140625 0.000000 -0.000238 -1.406821 -0.225882 -120.735138 1441.140625
47 1441.140625 0.000000 -0.000238 -1.449019 -0.249916 -121.948494 1441.140625
[R_Leg03]
45 1686.963989 0.000954 0.001431 0.078016 -0.042567 131.404678 1686.963989
46 1686.963989 0.000954 0.001431 0.080094 -0.041885 131.884918 1686.963989
47 1686.963989 0.000954 0.001431 0.081003 -0.044325 132.141907 1686.963989
[R_Foot]
45 3041.560059 -30.531288 -11.204481 7.407519 -24.132986 48.368034 3041.734131
46 3041.560059 -30.531288 -11.204481 6.620452 -24.201860 49.630093 3041.734131
47 3041.560059 -30.531288 -11.204481 5.831536 -24.254894 50.893658 3041.734131
[planeAlignerRight]
45 -0.635147 -812.270569 -0.364304 0.000000 -89.960434 -90.005180 812.270874
46 -0.635147 -812.270569 -0.364304 0.000000 -89.960434 -90.005180 812.270874
47 -0.635147 -812.270569 -0.364304 0.000000 -89.960434 -90.005180 812.270874
[R_Toe1_01]
45 -188.383347 -224.864899 21.052242 77.193253 -3.227262 -176.249374 294.101532
46 -188.383347 -224.864899 21.052242 77.170479 -2.966527 -176.602203 294.101532
47 -188.383347 -224.864899 21.052242 77.147545 -2.766000 -176.704071 294.101532
[R_Toe2_01]
45 200.637817 -220.002121 -148.787384 -89.174698 31.337379 -55.397251 332.857574
46 200.637817 -220.002121 -148.787384 -89.198967 31.688112 -55.242283 332.857574
47 200.637817 -220.002121 -148.787384 -89.222198 32.038898 -55.086903 332.857574
[R_Toe3_01]
45 188.606735 -220.092957 191.126343 -72.150414 -10.943332 -71.691589 347.192566
46 188.606735 -220.092957 191.126343 -72.274681 -10.847223 -71.275650 347.192566
47 188.606735 -220.092957 191.126343 -72.365074 -10.742010 -71.092979 347.192566
[planeLockWeightRight]
45 -0.000477 0.000000 0.000000 -0.011823 -0.004379 -0.000027 0.000477
46 -0.000477 0.000000 0.000000 -0.011823 -0.004379 -0.000027 0.000477
47 -0.000477 0.000000 0.000000 -0.011823 -0.004379 -0.000027 0.000477
[R_Toe1_02]
45 413.762085 0.000477 -0.000119 0.000006 -25.434675 -0.000005 413.762085
46 413.762085 0.000477 -0.000119 0.000006 -25.434675 -0.000005 413.762085
47 413.762085 0.000477 -0.000119 0.000006 -25.434675 -0.000005 413.762085
[R_Toe1_03]
45 464.317810 0.000000 0.001088 0.008937 74.908607 0.008937 464.317810
46 464.317810 0.000000 0.001088 0.008967 74.958397 0.008967 464.317810
47 464.317810 0.000000 0.001088 0.008912 74.865013 0.008912 464.317810
[R_Toe2_02]
45 342.234741 -0.000954 0.000238 0.001192 -69.860558 0.001192 342.234741
46 342.234741 -0.000954 0.000238 0.001192 -69.898300 0.001192 342.234741
47 342.234741 -0.000954 0.000238 0.001192 -69.936012 0.001192 342.234741
[R_Toe2_03]
45 420.210846 0.000715 -0.000268 0.012440 79.172928 0.012440 420.210846
46 420.210846 0.000715 -0.000268 0.012807 79.484085 0.012807 420.210846
47 420.210846 0.000715 -0.000268 0.012849 79.518402 0.012849 420.210846
[R_Toe3_02]
45 329.270355 -0.000477 -0.000954 0.001184 -74.684395 0.001184 329.270355
46 329.270355 -0.000477 -0.000954 0.001183 -75.228668 0.001183 329.270355
47 329.270355 -0.000477 -0.000954 0.001183 -75.491623 0.001183 329.270355
[R_Toe3_03]
45 439.137939 0.000238 0.001431 -0.012513 83.877403 -0.009011 439.137939
46 439.137939 0.000238 0.001431 -0.015232 85.113365 -0.011732 439.137939
47 439.137939 0.000238 0.001431 -0.018513 86.070412 -0.015015 439.137939
[Rear_Leg02]
45 1162.777710 -0.029802 0.005960 1.122294 -2.759610 -133.905457 1162.777710
46 1162.777710 -0.029802 0.005960 1.099711 -2.768667 -133.400146 1162.777710
47 1162.777710 -0.029802 0.005960 1.077049 -2.777524 -132.894821 1162.777710
[Rear_Leg03]
45 607.192505 -0.013351 -0.073195 0.010501 -0.005087 68.052696 607.192505
46 607.192505 -0.013351 -0.073195 0.010509 -0.005070 67.865143 607.192505
47 607.192505 -0.013351 -0.073195 0.010518 -0.005053 67.677589 607.192505
[Rear_Leg04]
45 995.874512 -0.020504 -0.011921 -0.039990 -0.019233 65.991974 995.874573
46 995.874512 -0.020504 -0.011921 -0.039928 -0.019361 65.624382 995.874573
47 995.874512 -0.020504 -0.011921 -0.039866 -0.019489 65.256813 995.874573
[Rear_Foot]
45 3096.176270 -0.067472 -0.041425 -34.412010 85.612244 158.294388 3096.176270
46 3096.176270 -0.067472 -0.041425 -41.871078 86.288597 151.020065 3096.176270
47 3096.176270 -0.067472 -0.041425 -52.342918 86.877823 140.733047 3096.176270
[planeAlignerCenter]
45 0.350077 0.966311 -838.790894 0.000009 0.000003 -179.999985 838.791565
46 0.350077 0.966311 -838.790894 0.000009 0.000003 -179.999985 838.791565
47 0.350077 0.966311 -838.790894 0.000009 0.000003 -179.999985 838.791565
[Rear_Toe1_01]
45 0.653352 83.966492 -371.173737 0.288091 41.914127 90.413170 380.553192
46 0.653352 83.966492 -371.173737 0.288091 41.914127 90.413170 380.553192
47 0.653352 83.966492 -371.173737 0.288091 41.914127 90.413170 380.553192
[Rear_Toe2_01]
45 178.200760 -294.826019 -362.060547 -7.196267 34.406261 -66.271294 499.765686
46 178.200760 -294.826019 -362.060547 -7.196267 34.406261 -66.271294 499.765686
47 178.200760 -294.826019 -362.060547 -7.196267 34.406261 -66.271294 499.765686
[Rear_Toe3_01]
45 -153.359680 -308.780914 -362.060852 3.289418 33.518005 -112.540970 499.952881
46 -153.359680 -308.780914 -362.060852 3.289418 33.518005 -112.540970 499.952881
47 -153.359680 -308.780914 -362.060852 3.289418 33.518005 -112.540970 499.952881
[planeLockWeightCenter]
45 -0.000062 0.000238 0.000000 -0.011814 -0.004373 -0.000015 0.000246
46 -0.000062 0.000238 0.000000 -0.011814 -0.004373 -0.000015 0.000246
47 -0.000062 0.000238 0.000000 -0.011814 -0.004373 -0.000015 0.000246
[Rear_Toe1_02]
45 379.707825 0.194073 0.000477 -0.000242 -31.676744 0.006934 379.707855
46 379.707825 0.194073 0.000477 -0.000242 -31.676744 0.006934 379.707855
47 379.707825 0.194073 0.000477 -0.000242 -31.676744 0.006934 379.707855
[Rear_Toe1_03]
45 500.129700 0.165701 0.000119 -0.000103 51.902466 0.007295 500.129761
46 500.129700 0.165701 0.000119 -0.000103 51.902481 0.007295 500.129761
47 500.129700 0.165701 0.000119 -0.000103 51.902481 0.007295 500.129761
[Rear_Toe2_02]
45 340.494507 0.000238 -0.000954 0.001192 -69.854523 0.001192 340.494507
46 340.494507 0.000238 -0.000954 0.001192 -69.854523 0.001192 340.494507
47 340.494507 0.000238 -0.000954 0.001192 -69.854523 0.001192 340.494507
[Rear_Toe2_03]
45 433.103577 0.000000 0.000238 0.006696 69.810326 0.006696 433.103546
46 433.103577 0.000000 0.000238 0.006696 69.810341 0.006696 433.103546
47 433.103577 0.000000 0.000238 0.006696 69.810341 0.006696 433.103546
[Rear_Toe3_02]
45 340.494141 -0.000358 -0.000477 0.008288 -67.274704 -0.009460 340.494171
46 340.494141 -0.000358 -0.000477 0.008288 -67.274704 -0.009460 340.494171
47 340.494141 -0.000358 -0.000477 0.008288 -67.274704 -0.009460 340.494171
[Rear_Toe3_03]
45 433.103577 0.001431 -0.000238 -0.000972 65.958984 -0.004547 433.103546
46 433.103577 0.001431 -0.000238 -0.000972 65.958961 -0.004547 433.103546
47 433.103577 0.001431 -0.000238 -0.000972 65.958984 -0.004547 433.103546
[Back_Bone]
45 1312.175781 -701.934692 0.000954 0.000023 -0.000007 -85.606667 1488.125488
46 1312.175781 -701.934692 0.000954 0.000023 -0.000007 -85.606667 1488.125488
47 1312.175781 -701.934692 0.000954 0.000023 -0.000007 -85.606667 1488.125488
[Head]
45 1406.159424 809.709290 0.001431 0.071918 -1.307071 7.845185 1622.625488
46 1406.159424 809.709290 0.001431 0.039186 -1.384105 7.809021 1622.625488
47 1406.159424 809.709290 0.001431 0.006502 -1.461157 7.772896 1622.625488
[Motor_Bone]
45 1158.364380 -417.834747 0.000477 -0.000105 0.000046 -105.985291 1231.419434
46 1158.364380 -417.834747 0.000477 -0.000105 0.000046 -105.985291 1231.419434
47 1158.364380 -417.834747 0.000477 -0.000105 0.000046 -105.985291 1231.419434
[Ping_Mechanism]
45 1215.237793 -433.297150 0.000954 0.000103 -0.000053 82.120995 1290.174072
46 1215.237793 -433.297150 0.000954 0.000103 -0.000053 82.120995 1290.174072
47 1215.237793 -433.297150 0.000954 0.000103 -0.000053 82.120995 1290.174072
[BN_LookIK]
45 193.241119 1380.371704 -0.002861 0.000000 89.965736 -31.038179 1393.832153
46 193.241119 1380.371704 -0.002861 0.000000 89.965736 -31.038179 1393.832153
47 193.241119 1380.371704 -0.002861 0.000000 89.965736 -31.038179 1393.832153
[bottomMouth]
45 -435.092926 615.759399 -0.000954 -0.000022 0.000016 73.527184 753.966492
46 -435.092926 615.759399 -0.000954 -0.000022 0.000016 73.527184 753.966492
47 -435.092926 615.759399 -0.000954 -0.000022 0.000016 73.527184 753.966492
[L_Mouth01]
45 554.440979 7.658243 838.222046 150.204178 23.759130 109.605339 1005.027161
46 554.440979 7.658243 838.222046 150.204178 23.759130 109.605339 1005.027161
47 554.440979 7.658243 838.222046 150.204178 23.759130 109.605339 1005.027161
[L_mouthFront]
45 551.629089 934.514771 339.150421 0.000081 2.804060 79.119301 1136.941284
46 551.629089 934.514771 339.150421 0.000081 2.804060 79.119301 1136.941284
47 551.629089 934.514771 339.150421 0.000081 2.804060 79.119301 1136.941284
[mouthGun]
45 55.332661 1627.420898 0.000000 0.000023 0.000009 -11.038128 1628.361328
46 55.332661 1627.420898 0.000000 0.000023 0.000009 -11.038128 1628.361328
47 55.332661 1627.420898 0.000000 0.000023 0.000009 -11.038128 1628.361328
[R_Mouth01]
45 554.442383 7.659197 -838.223938 29.795891 -23.759109 109.605331 1005.029541
46 554.442383 7.659197 -838.223938 29.795891 -23.759109 109.605331 1005.029541
47 554.442383 7.659197 -838.223938 29.795891 -23.759109 109.605331 1005.029541
[R_mouthFront]
45 551.629089 934.514282 -339.151367 0.000029 -2.803930 79.119133 1136.941162
46 551.629089 934.514282 -339.151367 0.000029 -2.803930 79.119133 1136.941162
47 551.629089 934.514282 -339.151367 0.000029 -2.803930 79.119133 1136.941162
[TopMouth]
45 461.269867 -56.106091 -0.008583 -0.000059 -0.000268 92.025169 464.669525
46 461.269867 -56.106091 -0.008583 -0.000059 -0.000268 92.025169 464.669525
47 461.269867 -56.106091 -0.008583 -0.000059 -0.000268 92.025169 464.669525
[weapon_bone]
45 -987.239868 1448.372803 0.001431 0.000000 89.965736 -31.038221 1752.833740
46 -987.239868 1448.372803 0.001431 0.000000 89.965736 -31.038221 1752.833740
47 -987.239868 1448.372803 0.001431 0.000000 89.965736 -31.038221 1752.833740
